<?xml version="1.0" encoding="UTF-8" standalone="no"?>
<svg
   id="svg"
   version="1.1"
   viewBox="0 0 68.037758 67.834259"
   width="68.037758"
   height="67.834259"
   xmlns="http://www.w3.org/2000/svg"
   xmlns:svg="http://www.w3.org/2000/svg">
  <defs
     id="defs21" />
  <path
     d="m 2.6547245,47.426729 c -3.40146998,-8.93408 -3.75238,-18.52588 0.22535,-27.36475 3.66344,-8.18262 10.4111395,-14.5869102 18.7742095,-17.8198202 8.36059,-3.15234004 18.23267,-3.02637004 26.40103,0.66797 8.22828,3.65332 14.64,10.4633802 17.79018,18.8964802 3.22593,8.60742 2.88,18.14795 -0.96088,26.50049 -0.23077,0.50244 -0.45436,1.01221 -0.74857,1.48096 -3.12527,6.42773 -9.2041,11.85498 -15.61128,14.87549 -8.20645,3.78809 -17.57333,4.19824 -26.07971,1.14258 -8.92733,-3.20947 -15.7879895,-9.85107 -19.7903295,-18.37939 z"
     fill="#fd9f00"
     id="path19"
     style="font-family:none;mix-blend-mode:normal;fill-rule:nonzero;stroke:none;stroke-width:1;stroke-linecap:butt;stroke-linejoin:miter;stroke-miterlimit:10;stroke-dasharray:none;stroke-dashoffset:0" />
  <path
     d="m 2.6547245,47.426729 c 4.69451,-3.17285 10.2646195,-5.08887 15.9692295,-3.9668 3.6926,0.72656 6.98769,2.56641 10.22872,4.39307 0.45568,0.25781 1.45421,0.67969 1.75883,1.0708 0.07795,0.0996 0.07458,0.11426 0.10711,0.21973 -0.11707,0.85254 -0.383,1.86768 0.17626,2.61621 0.12982,0.17432 0.28161,0.24316 0.47326,0.33252 0.41729,0.0147 0.71385,-0.0791 1.0378,-0.35303 0.44718,-0.37646 0.7578,-1.01074 1.04835,-1.51025 7.1093,3.72656 17.06212,4.49414 24.64747,1.87646 1.24908,-0.43066 5.19619,-2.45801 6.03429,-2.31738 -3.12527,6.42773 -9.2041,11.85498 -15.61128,14.87549 -8.20645,3.78809 -17.57333,4.19824 -26.07971,1.14258 -8.92733,-3.20947 -15.7879895,-9.85107 -19.7903295,-18.37939 z"
     fill="#ed7b00"
     id="path20"
     style="font-family:none;mix-blend-mode:normal;fill-rule:nonzero;stroke:none;stroke-width:1;stroke-linecap:butt;stroke-linejoin:miter;stroke-miterlimit:10;stroke-dasharray:none;stroke-dashoffset:0" />
  <path
     d="m 30.718604,49.143529 0.04059,-0.17871 c 0.27077,-1.21729 1.74491,-11.8667 1.35443,-12.50977 -0.34168,-0.56104 -0.96015,-0.81152 -1.57993,-0.92432 -1.63106,-0.29443 -6.08234,0.63281 -7.0044,-0.73535 -0.22872,-0.33984 -0.20542,-0.49658 -0.10081,-0.87744 0.55194,-2.00977 3.6526,-6.68848 4.8507,-8.74072 2.52982,-4.33154 4.94857,-8.93115 7.78374,-13.06348 0.19253,-0.27979 0.43516,-0.59912 0.74374,-0.75586 0.20147,-0.10254 0.29744,-0.0469 0.51165,-0.0161 0.32982,0.23877 0.53788,0.46582 0.62637,0.87451 0.39897,1.83984 -1.10872,8.13867 -1.38549,10.48242 -0.20835,1.76367 -0.2044,3.51563 -0.18271,5.28809 1.41846,0.17871 7.70315,-0.0674 8.34374,0.75439 0.21538,0.27686 0.30901,0.56982 0.27385,0.92139 -0.09509,0.95215 -10.15165,18.14941 -11.53978,20.56641 -0.29055,0.49951 -0.60117,1.13379 -1.04835,1.51025 -0.32396,0.27393 -0.62051,0.36768 -1.0378,0.35303 -0.19165,-0.0894 -0.34344,-0.1582 -0.47326,-0.33252 -0.55927,-0.74854 -0.29333,-1.76367 -0.17626,-2.61621 z"
     fill="#fcfdfc"
     id="path21"
     style="font-family:none;mix-blend-mode:normal;fill-rule:nonzero;stroke:none;stroke-width:1;stroke-linecap:butt;stroke-linejoin:miter;stroke-miterlimit:10;stroke-dasharray:none;stroke-dashoffset:0" />
</svg>
