<?xml version="1.0" encoding="UTF-8" standalone="no"?>
<svg
   id="svg"
   version="1.1"
   viewBox="0 0 68.160835 68.140053"
   width="68.160835"
   height="68.140053"
   xmlns="http://www.w3.org/2000/svg"
   xmlns:svg="http://www.w3.org/2000/svg">
  <defs
     id="defs21" />
  <path
     d="m 3.3489679,48.793869 c -6.87458,-14.34155 -2.91033006,-31.53018 9.5515001,-41.4143599 12.46168,-9.88418 30.10623,-9.83423 42.51062,0.12026 12.40586,9.9544899 16.27253,27.1653799 9.31722,41.4678199 -5.71868,11.75947 -17.66447,19.20923 -30.74403,19.17231 -13.07897,-0.03706 -24.9830001,-7.55435 -30.6353101,-19.34604 z"
     fill="#008a4f"
     id="path8"
     style="font-family:none;mix-blend-mode:normal;fill-rule:nonzero;stroke:none;stroke-width:1;stroke-linecap:butt;stroke-linejoin:miter;stroke-miterlimit:10;stroke-dasharray:none;stroke-dashoffset:0" />
  <path
     d="m 28.318938,16.769889 c -0.19458,-1.03477 -0.49363,-2.17222 0.1748,-3.10679 0.44337,-0.61978 1.02784,-0.71792 1.74037,-0.80903 1.85172,-0.23657 7.49934,-0.2124 9.13158,0.48267 0.52601,0.50303 0.74432,1.01763 0.75165,1.74829 0.006,0.56924 -0.0938,1.18242 -0.21685,1.73657 1.77875,-0.01333 4.16996,-0.36694 5.52821,1.021 0.57289,0.58506 0.62857,1.79824 0.70037,2.57563 0.37509,4.07329 0.12601,8.3373 0.12747,12.43521 10e-4,5.17837 0.19487,10.44507 -0.0865,15.61333 -0.0557,1.02158 -0.25055,2.5248 -1.09744,3.24009 -0.61245,0.51826 -1.75092,0.69434 -2.52308,0.78867 -2.77363,0.33911 -5.74066,0.14736 -8.53363,0.14663 -2.8948,-7.3e-4 -5.97201,0.20991 -8.8422,-0.18604 -0.55311,-0.07617 -1.07092,-0.22148 -1.59766,-0.40225 -0.39429,-0.4292 -0.69333,-0.89663 -1.00484,-1.38677 -0.57158,-2.37524 -0.3537,-5.03276 -0.35443,-7.46733 l -0.006,-8.81807 -0.006,-9.28755 c -0.002,-1.58584 -0.0847,-3.20918 0.0111,-4.79106 0.0404,-0.66899 0.14696,-1.79736 0.52615,-2.36118 0.46901,-0.69756 1.38505,-0.99448 2.18183,-1.09761 1.10652,-0.14312 2.27971,-0.07998 3.39487,-0.07441 z"
     fill="#c9feae"
     id="path9"
     style="font-family:none;mix-blend-mode:normal;fill-rule:nonzero;stroke:none;stroke-width:1;stroke-linecap:butt;stroke-linejoin:miter;stroke-miterlimit:10;stroke-dasharray:none;stroke-dashoffset:0" />
  <path
     d="m 25.009048,19.952119 c 6.06315,-0.04497 12.12659,-0.0438 18.1896,0.0037 0.0879,4.91411 0.0366,9.8376 0.044,14.75273 0.003,2.46768 0.24176,5.21851 -0.041,7.65645 -0.0498,0.44092 -0.1304,0.52852 -0.42491,0.83496 -4.59634,0.71118 -9.15077,-2.3603 -13.66828,-2.86758 -1.40381,-0.15762 -2.70198,-0.01758 -4.08996,0.16846 z"
     fill="#008a4f"
     id="path10"
     style="font-family:none;mix-blend-mode:normal;fill-rule:nonzero;stroke:none;stroke-width:1;stroke-linecap:butt;stroke-linejoin:miter;stroke-miterlimit:10;stroke-dasharray:none;stroke-dashoffset:0" />
  <path
     d="m 3.3489679,48.793869 c 4.24952,-2.1189 8.5424201,-3.29927 13.2465901,-1.7354 1.85304,0.61597 4.31927,1.88057 5.68894,3.31377 0.0948,0.09932 0.19238,0.19526 0.28674,0.29487 0.3115,0.49014 0.61055,0.95757 1.00484,1.38677 1.13187,1.55625 4.24103,1.74785 5.94872,2.21382 4.36996,1.19282 8.58813,2.12021 13.15663,1.63184 3.87692,-0.41455 7.47985,-1.98018 10.80879,-3.94014 2.13773,-1.25947 4.39707,-2.8998 6.88059,-3.35288 1.52821,-0.27876 2.88059,0.0016 4.35751,0.36108 -5.71868,11.75947 -17.66447,19.20923 -30.74403,19.17231 -13.07897,-0.03706 -24.9830001,-7.55435 -30.6353101,-19.34604 z"
     fill="#0bb83c"
     id="path11"
     style="font-family:none;mix-blend-mode:normal;fill-rule:nonzero;stroke:none;stroke-width:1;stroke-linecap:butt;stroke-linejoin:miter;stroke-miterlimit:10;stroke-dasharray:none;stroke-dashoffset:0" />
</svg>
