<?xml version="1.0" encoding="UTF-8" standalone="no"?>
<svg
   id="svg"
   version="1.1"
   viewBox="0 0 68.122627 68.101547"
   width="68.122627"
   height="68.101547"
   xmlns="http://www.w3.org/2000/svg"
   xmlns:svg="http://www.w3.org/2000/svg">
  <defs
     id="defs21" />
  <path
     d="m 2.1491921,45.947453 c -5.3978,-14.47236 -0.37582,-30.76436 12.2339899,-39.6886203 12.60996,-8.92427 29.64864,-8.24517 41.50784,1.65454 11.85919,9.8995603 15.56777,26.5396003 9.03458,40.5364703 -5.80396,12.43462 -18.50637,20.17119 -32.22066,19.62451 -13.71429,-0.54668 -25.7602899,-9.26982 -30.5557499,-22.1269 z"
     fill="#008a4f"
     id="path12"
     style="font-family:none;mix-blend-mode:normal;fill-rule:nonzero;stroke:none;stroke-width:1;stroke-linecap:butt;stroke-linejoin:miter;stroke-miterlimit:10;stroke-dasharray:none;stroke-dashoffset:0" />
  <path
     d="m 2.1491921,45.947453 c 5.06403,-3.23525 10.5745099,-5.48892 16.6593399,-4.14316 4.44454,0.98291 8.19575,3.65903 12.1663,5.73354 -0.20791,1.23296 -0.67575,2.90977 0.08132,4.02656 0.27707,0.15176 0.36044,0.23525 0.68586,0.14927 1.0296,-0.27202 1.71487,-1.88994 2.18637,-2.75991 1.39194,0.70635 3.21304,1.20337 4.70769,1.68369 6.46711,2.07891 14.06842,2.63262 20.57788,0.43447 1.99531,-0.67383 3.84249,-1.66494 5.71165,-2.62207 -5.80396,12.43462 -18.50637,20.17119 -32.22066,19.62451 -13.71429,-0.54668 -25.7602899,-9.26982 -30.5557499,-22.1269 z"
     fill="#0bb83c"
     id="path13"
     style="font-family:none;mix-blend-mode:normal;fill-rule:nonzero;stroke:none;stroke-width:1;stroke-linecap:butt;stroke-linejoin:miter;stroke-miterlimit:10;stroke-dasharray:none;stroke-dashoffset:0" />
  <path
     d="m 30.974832,47.537833 c 0.4485,-2.07524 2.21568,-9.86016 1.56205,-11.3124 -0.44,-0.48867 -0.93773,-0.63311 -1.58168,-0.67559 -1.5052,-0.09917 -6.21407,0.79834 -7.09026,-0.15967 -0.19751,-0.21606 -0.26432,-0.52969 -0.23531,-0.81929 0.04454,-0.44546 0.26593,-0.90059 0.47267,-1.29287 1.75736,-3.33618 4.05377,-6.98848 5.9641,-10.31675 1.7704,-3.08467 3.41685,-6.33149 5.30183,-9.3375 0.26271,-0.41865 0.63385,-1.0002 1.05949,-1.2665 0.1159,-0.07251 0.22505,-0.098 0.35663,-0.12847 0.36718,0.22646 0.46711,0.41177 0.5685,0.84346 0.62535,2.66323 -1.09685,11.56055 -1.16513,15.24243 1.84147,-0.0023 7.03707,-0.34482 8.47824,0.33823 0.25641,0.30659 0.37333,0.60938 0.33656,1.01836 -0.09099,1.01221 -2.18857,3.68364 -2.81524,4.74492 -2.84322,4.79399 -5.59663,9.64072 -8.2589,14.53755 -0.4715,0.86997 -1.15678,2.48789 -2.18637,2.75991 -0.32542,0.08599 -0.40879,0.0025 -0.68586,-0.14927 -0.75707,-1.1168 -0.28923,-2.7936 -0.08132,-4.02656 z"
     fill="#c9feae"
     id="path14"
     style="font-family:none;mix-blend-mode:normal;fill-rule:nonzero;stroke:none;stroke-width:1;stroke-linecap:butt;stroke-linejoin:miter;stroke-miterlimit:10;stroke-dasharray:none;stroke-dashoffset:0" />
</svg>
