<?xml version="1.0" encoding="UTF-8" standalone="no"?>
<svg
   id="svg"
   version="1.1"
   viewBox="0 0 68.247047 68.474754"
   width="68.247047"
   height="68.474754"
   xmlns="http://www.w3.org/2000/svg"
   xmlns:svg="http://www.w3.org/2000/svg">
  <defs
     id="defs21" />
  <path
     d="m 32.557886,0.03658641 c 18.8019,-0.86338 34.75253,13.65673959 35.64967,32.45272959 0.89714,18.79541 -13.5981,34.76807 -32.39678,35.69824 C 16.964626,69.120666 0.9389862,54.585016 0.0394962,35.741266 -0.8598438,16.897956 13.708506,0.90215641 32.557886,0.03657641 Z"
     fill="#ffd000"
     id="path6"
     style="font-family:none;mix-blend-mode:normal;fill-rule:nonzero;stroke:none;stroke-width:1;stroke-linecap:butt;stroke-linejoin:miter;stroke-miterlimit:10;stroke-dasharray:none;stroke-dashoffset:0" />
  <path
     d="m 36.645366,11.854646 c 0.34755,0.0387 0.56733,0.1689 0.86564,0.34482 1.00103,1.26401 -0.82081,9.24521 -1.04952,11.19785 -0.18359,1.62129 -0.25201,3.25356 -0.20513,4.88467 2.44352,0.0334 5.22271,-0.31875 7.61993,0.075 0.55853,0.0918 1.0293,0.23291 1.37788,0.70679 0.0042,0.14238 0.0056,0.24565 -0.02652,0.3854 -0.38344,1.66802 -10.81788,19.57676 -12.49685,21.95859 -0.28821,0.41016 -0.60806,0.65332 -1.03179,0.90527 -0.28396,-0.16699 -0.65392,-0.40137 -0.83927,-0.67969 -0.80674,-1.2085 1.60791,-13.63916 1.94168,-15.73682 -1.60791,-0.041 -7.93582,0.28857 -8.89685,-0.54199 -0.22813,-0.19775 -0.31267,-0.61523 -0.31663,-0.90234 -0.01114,-0.80273 10.73128,-19.37505 12.13553,-21.5228 0.26374,-0.40327 0.57231,-0.74517 0.9219,-1.07476 z"
     fill="#fcfdfc"
     id="path7"
     style="font-family:none;mix-blend-mode:normal;fill-rule:nonzero;stroke:none;stroke-width:1;stroke-linecap:butt;stroke-linejoin:miter;stroke-miterlimit:10;stroke-dasharray:none;stroke-dashoffset:0" />
  <path
     d="m 2.2511302,46.320656 c 5.06403,-3.23525 10.5745098,-5.48892 16.6593398,-4.14316 4.44454,0.98291 8.19575,3.65903 12.1663,5.73354 -0.20791,1.23296 -0.67575,2.90977 0.08132,4.02656 0.27707,0.15176 0.36044,0.23525 0.68586,0.14927 1.0296,-0.27202 1.71487,-1.88994 2.18637,-2.75991 1.39194,0.70635 3.21304,1.20337 4.70769,1.68369 6.46711,2.07891 14.06842,2.63262 20.57788,0.43447 1.99531,-0.67383 3.84249,-1.66494 5.71165,-2.62207 -5.80396,12.43462 -18.50637,20.17119 -32.22066,19.62451 -13.71429,-0.54668 -25.7602898,-9.26982 -30.5557498,-22.1269 z"
     fill="#0bb83c"
     id="path13-7"
     style="font-family:none;mix-blend-mode:normal;fill:#fee100;fill-opacity:1;fill-rule:nonzero;stroke:none;stroke-width:1;stroke-linecap:butt;stroke-linejoin:miter;stroke-miterlimit:10;stroke-dasharray:none;stroke-dashoffset:0" />
</svg>
