<?xml version="1.0" encoding="UTF-8" standalone="no"?>
<svg
   id="svg"
   version="1.1"
   viewBox="0 0 68.079842 68.05809"
   width="68.079842"
   height="68.05809"
   xmlns="http://www.w3.org/2000/svg"
   xmlns:svg="http://www.w3.org/2000/svg">
  <defs
     id="defs21" />
  <path
     d="m 3.8438377,49.734454 c -7.33612,-14.09766 -3.93596997,-31.39453 8.1909203,-41.6674796 12.12689,-10.27295 29.75121,-10.78711 42.45744,-1.23926 12.70476,9.5493196 17.10916,26.6176796 10.60806,41.1196296 -5.33919,11.90771 -17.01978,19.71533 -30.06769,20.09619 -13.04777,0.38086 -25.1641003,-6.73242 -31.1887203,-18.30908 z"
     fill="#fd9f00"
     id="path15"
     style="font-family:none;mix-blend-mode:normal;fill-rule:nonzero;stroke:none;stroke-width:1;stroke-linecap:butt;stroke-linejoin:miter;stroke-miterlimit:10;stroke-dasharray:none;stroke-dashoffset:0" />
  <path
     d="m 28.073728,16.785724 c -0.18227,-0.9624 -0.45875,-2.00684 0.15385,-2.87842 0.44322,-0.63135 0.93187,-0.74414 1.65451,-0.84375 1.52381,-0.20947 8.39033,-0.28711 9.38227,0.56396 0.44689,0.38379 0.64908,1.02539 0.66374,1.59521 0.0132,0.51563 -0.0645,1.07813 -0.19634,1.57471 1.78315,-0.0176 4.12454,-0.36035 5.51648,1.00342 0.67253,0.65918 0.74872,1.75635 0.83663,2.64697 0.32821,3.33545 0.0982,6.88184 0.0996,10.24512 0.003,5.47266 0.10842,10.97168 -0.022,16.44287 -0.0381,1.604 0.001,3.78223 -1.2381,4.98633 -0.54359,0.52734 -1.41245,0.69141 -2.14066,0.78809 -2.60366,0.34277 -5.44469,0.11133 -8.07707,0.10547 -2.91516,-0.007 -5.81875,0.14502 -8.73245,-10e-4 l -0.1244,-0.007 c -0.51663,-0.0601 -1.07941,-0.0996 -1.57231,-0.27246 -1.08454,-0.37939 -1.55736,-1.13672 -2.03297,-2.12549 -0.41788,-2.09326 -0.27473,-4.30371 -0.27678,-6.4292 l -0.004,-8.44189 -0.005,-10.396 c -0.006,-1.62158 -0.11092,-3.26807 -0.0415,-4.88672 0.0264,-0.6123 0.0445,-1.88086 0.40762,-2.38477 0.0561,-0.0791 0.10462,-0.11719 0.17392,-0.18457 l 0.13319,-0.13184 c 1.38828,-1.35059 3.67179,-1.00049 5.44103,-0.96826 z"
     fill="#fcfdfc"
     id="path16"
     style="font-family:none;mix-blend-mode:normal;fill-rule:nonzero;stroke:none;stroke-width:1;stroke-linecap:butt;stroke-linejoin:miter;stroke-miterlimit:10;stroke-dasharray:none;stroke-dashoffset:0" />
  <path
     d="m 25.761348,19.936594 c 5.42989,-0.0703 12.02901,-0.28418 17.38139,0.0439 0.1011,2.32324 0.34286,21.54785 -0.0952,22.46338 -0.42344,0.3501 -0.94652,0.41602 -1.4696,0.52441 -4.22857,0.0864 -8.14271,-2.26611 -12.27194,-2.88281 -1.21861,-0.18311 -3.19883,0.45996 -4.20147,-0.13477 -0.26842,-0.37061 -0.30872,-0.74854 -0.3411,-1.19238 -0.24469,-3.35742 -0.006,-6.8335 -0.0252,-10.2041 -0.0152,-2.6748 -0.37568,-5.66162 0.009,-8.30273 0.33597,-0.2915 0.59018,-0.26367 1.01421,-0.31494 z"
     fill="#fd9f00"
     id="path17"
     style="font-family:none;mix-blend-mode:normal;fill-rule:nonzero;stroke:none;stroke-width:1;stroke-linecap:butt;stroke-linejoin:miter;stroke-miterlimit:10;stroke-dasharray:none;stroke-dashoffset:0" />
  <path
     d="m 3.8438377,49.734454 c 4.46066,-2.02295 9.5762603,-2.86377 14.2902603,-1.09131 1.37187,0.51563 2.71399,1.65088 4.11048,1.96582 0.4756,0.98877 0.94842,1.74609 2.03297,2.12549 0.49289,0.17285 1.05568,0.2124 1.57231,0.27246 1.42799,1.17773 4.75429,2.19434 6.57744,2.66162 2.1326,0.54492 4.29348,0.70313 6.48835,0.71631 6.32234,0.0396 9.39927,-1.80029 14.76923,-4.82959 1.47985,-0.83496 2.95824,-1.70801 4.55385,-2.30566 2.20659,-0.82471 4.52308,-1.14551 6.86154,-1.30225 -5.33919,11.90771 -17.01978,19.71533 -30.06769,20.09619 -13.04777,0.38086 -25.1641003,-6.73242 -31.1887203,-18.30908 z"
     fill="#ed7b00"
     id="path18"
     style="font-family:none;mix-blend-mode:normal;fill-rule:nonzero;stroke:none;stroke-width:1;stroke-linecap:butt;stroke-linejoin:miter;stroke-miterlimit:10;stroke-dasharray:none;stroke-dashoffset:0" />
</svg>
