<?xml version="1.0" encoding="UTF-8" standalone="no"?>
<svg
   id="svg"
   version="1.1"
   viewBox="0 0 68.258926 68.237816"
   width="68.258926"
   height="68.237816"
   xmlns="http://www.w3.org/2000/svg"
   xmlns:svg="http://www.w3.org/2000/svg">
  <defs
     id="defs21" />
  <path
     d="m 3.6537481,49.474243 c -7.25333,-14.38916 -3.44952008,-31.88862 9.1223399,-41.9702593 12.57201,-10.08164 30.4841,-9.99624 42.96029,0.20493 12.47473,10.2010293 16.11136,27.7365193 8.72088,42.0553693 -5.88278,11.39795 -17.66154,18.53467 -30.49055,18.47314 -12.82872,-0.0615 -24.5393399,-7.30957 -30.3129699,-18.76318 z"
     fill="#ffd000"
     id="path2"
     style="font-family:none;mix-blend-mode:normal;fill-rule:nonzero;stroke:none;stroke-width:1;stroke-linecap:butt;stroke-linejoin:miter;stroke-miterlimit:10;stroke-dasharray:none;stroke-dashoffset:0" />
  <path
     d="m 28.287448,16.611353 c -0.19692,-1.00532 -0.45363,-2.11846 0.18725,-3.02593 0.44103,-0.62446 1.15311,-0.75513 1.8674,-0.85488 1.51165,-0.21138 8.09319,-0.19497 9.16132,0.66987 0.40733,0.33003 0.59194,1.01924 0.59341,1.52021 10e-4,0.60249 -0.10696,1.23354 -0.19048,1.83003 1.65128,-0.0248 4.08938,-0.37515 5.40806,0.82603 1.31868,1.20293 0.95971,7.78696 0.9641,9.64922 l -0.007,13.52813 c 0.0117,2.82568 0.27253,5.9502 -0.1685,8.73926 -0.14359,0.90088 -0.46154,1.86035 -1.13553,2.50781 -0.58462,0.55957 -1.40659,0.68262 -2.17875,0.78369 -2.38242,0.31641 -4.98168,0.12598 -7.38755,0.12305 -3.11516,-0.004 -6.26799,0.0937 -9.3767,-0.0337 -0.5493,-0.0791 -1.09465,-0.16113 -1.62198,-0.33984 -1.06462,-0.36182 -1.45963,-1.00488 -1.93407,-1.95117 -0.72088,-2.5166 -0.38154,-5.66455 -0.38154,-8.28662 l 0.002,-9.76318 c 10e-4,-3.93823 -0.22872,-8.35605 2.9e-4,-12.24463 0.0379,-0.64644 0.0828,-1.77378 0.43868,-2.32778 0.52234,-0.81299 1.60908,-1.17964 2.51839,-1.29697 1.05817,-0.13667 2.17626,-0.0677 3.2419,-0.0526 z"
     fill="#fcfdfc"
     id="path3"
     style="font-family:none;mix-blend-mode:normal;fill-rule:nonzero;stroke:none;stroke-width:1;stroke-linecap:butt;stroke-linejoin:miter;stroke-miterlimit:10;stroke-dasharray:none;stroke-dashoffset:0" />
  <path
     d="m 25.801878,19.889523 c 5.77949,-0.17329 11.60777,-0.0204 17.39238,-0.007 0.1685,4.9043 0.0879,9.83218 0.0908,14.73984 0,2.50195 0.25201,5.27783 -0.0952,7.74023 -0.28864,0.34717 -0.55092,0.38965 -0.95971,0.5376 -4.04835,0.40137 -8.03692,-1.95557 -11.94799,-2.68066 -1.31751,-0.24463 -4.05905,0.22705 -5.06872,-0.5376 -0.5159,-1.89697 -0.27516,-10.88335 -0.2967,-13.45239 -0.0158,-1.89478 -0.20923,-3.82808 -0.0765,-5.71699 0.29465,-0.375 0.53216,-0.4396 0.96161,-0.62285 z"
     fill="#ffd000"
     id="path4"
     style="font-family:none;mix-blend-mode:normal;fill-rule:nonzero;stroke:none;stroke-width:1;stroke-linecap:butt;stroke-linejoin:miter;stroke-miterlimit:10;stroke-dasharray:none;stroke-dashoffset:0" />
  <path
     d="m 3.6537481,49.474243 c 1.81802,-1.41504 8.0319399,-2.26318 10.3069599,-1.98047 1.17348,0.14648 2.36308,0.44092 3.45832,0.88916 1.23311,0.50684 3.82799,2.29395 5.04908,2.2002 0.47443,0.94629 0.86945,1.58936 1.93407,1.95117 0.52733,0.17871 1.07267,0.26074 1.62198,0.33984 0.0399,0.0747 0.0796,0.14941 0.12308,0.22266 0.89436,1.49268 4.18535,2.11816 5.78007,2.52539 5.34168,1.36084 11.26403,1.25244 16.33509,-1.05615 2.36923,-1.07959 4.5348,-2.50049 6.77216,-3.81738 3.32747,-1.9585 5.78608,-1.93359 9.42271,-0.98437 -5.88278,11.39795 -17.66154,18.53467 -30.49055,18.47314 -12.82872,-0.0615 -24.5393399,-7.30957 -30.3129699,-18.76318 z"
     fill="#fee100"
     id="path5"
     style="font-family:none;mix-blend-mode:normal;fill-rule:nonzero;stroke:none;stroke-width:1;stroke-linecap:butt;stroke-linejoin:miter;stroke-miterlimit:10;stroke-dasharray:none;stroke-dashoffset:0" />
</svg>
